<mxfile host="app.diagrams.net" modified="2020-04-03T01:21:57.950Z" agent="5.0 (Macintosh; Intel Mac OS X 10_14_6) AppleWebKit/537.36 (KHTML, like Gecko) Chrome/80.0.3987.149 Safari/537.36" etag="4r8GSU5_382fyiG0HDjf" version="12.9.6" type="github">
  <diagram name="Page-1" id="e7e014a7-5840-1c2e-5031-d8a46d1fe8dd">
    <mxGraphModel dx="786" dy="681" grid="1" gridSize="10" guides="1" tooltips="1" connect="1" arrows="1" fold="1" page="1" pageScale="1" pageWidth="1169" pageHeight="826" background="#ffffff" math="0" shadow="0">
      <root>
        <mxCell id="0" />
        <mxCell id="1" parent="0" />
        <mxCell id="xgApULDK-RuyHCCMeM6z-41" value="Previous lists page&amp;nbsp;" style="text;html=1;strokeColor=none;fillColor=none;align=center;verticalAlign=middle;whiteSpace=wrap;rounded=0;" parent="1" vertex="1">
          <mxGeometry x="30" y="190" width="110" height="20" as="geometry" />
        </mxCell>
        <mxCell id="xgApULDK-RuyHCCMeM6z-42" value="DB" style="shape=cylinder;whiteSpace=wrap;html=1;boundedLbl=1;backgroundOutline=1;" parent="1" vertex="1">
          <mxGeometry x="170" y="140" width="90" height="70" as="geometry" />
        </mxCell>
        <mxCell id="xgApULDK-RuyHCCMeM6z-46" style="edgeStyle=orthogonalEdgeStyle;rounded=0;orthogonalLoop=1;jettySize=auto;html=1;exitX=0.5;exitY=1;exitDx=0;exitDy=0;" parent="1" source="xgApULDK-RuyHCCMeM6z-43" target="xgApULDK-RuyHCCMeM6z-42" edge="1">
          <mxGeometry relative="1" as="geometry" />
        </mxCell>
        <mxCell id="xgApULDK-RuyHCCMeM6z-43" value="Voting page" style="text;html=1;strokeColor=none;fillColor=none;align=center;verticalAlign=middle;whiteSpace=wrap;rounded=0;" parent="1" vertex="1">
          <mxGeometry x="290" y="120" width="110" height="20" as="geometry" />
        </mxCell>
        <mxCell id="xgApULDK-RuyHCCMeM6z-47" style="edgeStyle=orthogonalEdgeStyle;rounded=0;orthogonalLoop=1;jettySize=auto;html=1;exitX=1.011;exitY=0.614;exitDx=0;exitDy=0;entryX=0.5;entryY=0;entryDx=0;entryDy=0;exitPerimeter=0;" parent="1" source="xgApULDK-RuyHCCMeM6z-42" target="xgApULDK-RuyHCCMeM6z-44" edge="1">
          <mxGeometry relative="1" as="geometry">
            <Array as="points">
              <mxPoint x="345" y="183" />
            </Array>
          </mxGeometry>
        </mxCell>
        <mxCell id="xgApULDK-RuyHCCMeM6z-44" value="Results page" style="text;html=1;strokeColor=none;fillColor=none;align=center;verticalAlign=middle;whiteSpace=wrap;rounded=0;" parent="1" vertex="1">
          <mxGeometry x="290" y="220" width="110" height="20" as="geometry" />
        </mxCell>
        <mxCell id="xgApULDK-RuyHCCMeM6z-45" style="edgeStyle=orthogonalEdgeStyle;rounded=0;orthogonalLoop=1;jettySize=auto;html=1;entryX=0.5;entryY=0;entryDx=0;entryDy=0;" parent="1" source="xgApULDK-RuyHCCMeM6z-42" target="xgApULDK-RuyHCCMeM6z-41" edge="1">
          <mxGeometry relative="1" as="geometry">
            <mxPoint x="85" y="140" as="targetPoint" />
            <Array as="points">
              <mxPoint x="85" y="175" />
            </Array>
          </mxGeometry>
        </mxCell>
        <mxCell id="PXa6PoAHHWMM4-qhzeyB-1" value="" style="endArrow=none;html=1;" parent="1" edge="1">
          <mxGeometry width="50" height="50" relative="1" as="geometry">
            <mxPoint x="399" y="400" as="sourcePoint" />
            <mxPoint x="399" y="85" as="targetPoint" />
          </mxGeometry>
        </mxCell>
        <mxCell id="PXa6PoAHHWMM4-qhzeyB-2" value="Setup vote page" style="text;html=1;strokeColor=none;fillColor=none;align=center;verticalAlign=middle;whiteSpace=wrap;rounded=0;fontStyle=1" parent="1" vertex="1">
          <mxGeometry x="530" y="80" width="110" height="20" as="geometry" />
        </mxCell>
        <mxCell id="PXa6PoAHHWMM4-qhzeyB-4" value="Select from map fro open times" style="text;html=1;strokeColor=none;fillColor=none;align=center;verticalAlign=middle;whiteSpace=wrap;rounded=0;" parent="1" vertex="1">
          <mxGeometry x="450" y="160" width="170" height="20" as="geometry" />
        </mxCell>
        <mxCell id="PXa6PoAHHWMM4-qhzeyB-7" value="Set timer for voting&amp;nbsp;" style="text;html=1;strokeColor=none;fillColor=none;align=left;verticalAlign=middle;whiteSpace=wrap;rounded=0;" parent="1" vertex="1">
          <mxGeometry x="450" y="140" width="170" height="20" as="geometry" />
        </mxCell>
        <mxCell id="PXa6PoAHHWMM4-qhzeyB-8" value="Mile radius selector" style="text;html=1;strokeColor=none;fillColor=none;align=left;verticalAlign=middle;whiteSpace=wrap;rounded=0;" parent="1" vertex="1">
          <mxGeometry x="450" y="180" width="170" height="20" as="geometry" />
        </mxCell>
        <mxCell id="PXa6PoAHHWMM4-qhzeyB-9" value="Features&amp;nbsp;" style="text;html=1;strokeColor=none;fillColor=none;align=left;verticalAlign=middle;whiteSpace=wrap;rounded=0;fontStyle=1" parent="1" vertex="1">
          <mxGeometry x="440" y="120" width="170" height="20" as="geometry" />
        </mxCell>
        <mxCell id="PXa6PoAHHWMM4-qhzeyB-10" value="Location = Soho" style="text;html=1;strokeColor=none;fillColor=none;align=left;verticalAlign=middle;whiteSpace=wrap;rounded=0;" parent="1" vertex="1">
          <mxGeometry x="440" y="240" width="170" height="20" as="geometry" />
        </mxCell>
        <mxCell id="PXa6PoAHHWMM4-qhzeyB-11" value="Number of people&amp;nbsp; =&amp;nbsp; 2-4, 4-6, 6-8" style="text;html=1;strokeColor=none;fillColor=none;align=left;verticalAlign=middle;whiteSpace=wrap;rounded=0;" parent="1" vertex="1">
          <mxGeometry x="440" y="260" width="190" height="20" as="geometry" />
        </mxCell>
        <mxCell id="PXa6PoAHHWMM4-qhzeyB-12" value="Price range =&amp;nbsp; £, ££, £££" style="text;html=1;strokeColor=none;fillColor=none;align=left;verticalAlign=middle;whiteSpace=wrap;rounded=0;" parent="1" vertex="1">
          <mxGeometry x="440" y="280" width="190" height="20" as="geometry" />
        </mxCell>
        <mxCell id="PXa6PoAHHWMM4-qhzeyB-13" value="Type = Thai&amp;nbsp;" style="text;html=1;strokeColor=none;fillColor=none;align=left;verticalAlign=middle;whiteSpace=wrap;rounded=0;" parent="1" vertex="1">
          <mxGeometry x="440" y="300" width="190" height="20" as="geometry" />
        </mxCell>
        <mxCell id="PXa6PoAHHWMM4-qhzeyB-18" value="" style="group" parent="1" vertex="1" connectable="0">
          <mxGeometry x="450" y="540" width="48" height="70" as="geometry" />
        </mxCell>
        <mxCell id="PXa6PoAHHWMM4-qhzeyB-20" value="" style="group" parent="PXa6PoAHHWMM4-qhzeyB-18" vertex="1" connectable="0">
          <mxGeometry x="-10" y="-40" width="58" height="110" as="geometry" />
        </mxCell>
        <mxCell id="PXa6PoAHHWMM4-qhzeyB-61" value="" style="group" parent="1" vertex="1" connectable="0">
          <mxGeometry x="450" y="480" width="250" height="73" as="geometry" />
        </mxCell>
        <mxCell id="PXa6PoAHHWMM4-qhzeyB-14" value="" style="whiteSpace=wrap;html=1;aspect=fixed;fontStyle=0" parent="PXa6PoAHHWMM4-qhzeyB-61" vertex="1">
          <mxGeometry width="70" height="70" as="geometry" />
        </mxCell>
        <mxCell id="PXa6PoAHHWMM4-qhzeyB-56" value="List title&amp;nbsp;" style="text;html=1;strokeColor=none;fillColor=none;align=left;verticalAlign=middle;whiteSpace=wrap;rounded=0;" parent="PXa6PoAHHWMM4-qhzeyB-61" vertex="1">
          <mxGeometry x="80" width="170" height="20" as="geometry" />
        </mxCell>
        <mxCell id="PXa6PoAHHWMM4-qhzeyB-57" value="Event name" style="text;html=1;strokeColor=none;fillColor=none;align=left;verticalAlign=middle;whiteSpace=wrap;rounded=0;" parent="PXa6PoAHHWMM4-qhzeyB-61" vertex="1">
          <mxGeometry x="79" y="19" width="170" height="20" as="geometry" />
        </mxCell>
        <mxCell id="PXa6PoAHHWMM4-qhzeyB-58" value="Place" style="text;html=1;strokeColor=none;fillColor=none;align=left;verticalAlign=middle;whiteSpace=wrap;rounded=0;" parent="PXa6PoAHHWMM4-qhzeyB-61" vertex="1">
          <mxGeometry x="80" y="37" width="170" height="20" as="geometry" />
        </mxCell>
        <mxCell id="PXa6PoAHHWMM4-qhzeyB-59" value="Number of attendees&amp;nbsp;" style="text;html=1;strokeColor=none;fillColor=none;align=left;verticalAlign=middle;whiteSpace=wrap;rounded=0;" parent="PXa6PoAHHWMM4-qhzeyB-61" vertex="1">
          <mxGeometry x="80" y="53" width="170" height="20" as="geometry" />
        </mxCell>
        <mxCell id="PXa6PoAHHWMM4-qhzeyB-60" value="" style="group" parent="PXa6PoAHHWMM4-qhzeyB-61" vertex="1" connectable="0">
          <mxGeometry width="70" height="70" as="geometry" />
        </mxCell>
        <mxCell id="PXa6PoAHHWMM4-qhzeyB-39" value="" style="group" parent="PXa6PoAHHWMM4-qhzeyB-60" vertex="1" connectable="0">
          <mxGeometry x="10" y="20" width="48" height="32" as="geometry" />
        </mxCell>
        <mxCell id="PXa6PoAHHWMM4-qhzeyB-36" value="" style="group" parent="PXa6PoAHHWMM4-qhzeyB-39" vertex="1" connectable="0">
          <mxGeometry x="22" width="20" height="20" as="geometry" />
        </mxCell>
        <mxCell id="PXa6PoAHHWMM4-qhzeyB-37" value="" style="ellipse;whiteSpace=wrap;html=1;aspect=fixed;" parent="PXa6PoAHHWMM4-qhzeyB-36" vertex="1">
          <mxGeometry width="20" height="20" as="geometry" />
        </mxCell>
        <mxCell id="PXa6PoAHHWMM4-qhzeyB-31" value="" style="group" parent="PXa6PoAHHWMM4-qhzeyB-39" vertex="1" connectable="0">
          <mxGeometry y="12" width="48" height="20.000000000000004" as="geometry" />
        </mxCell>
        <mxCell id="PXa6PoAHHWMM4-qhzeyB-32" value="" style="group" parent="PXa6PoAHHWMM4-qhzeyB-31" vertex="1" connectable="0">
          <mxGeometry width="48" height="20.000000000000004" as="geometry" />
        </mxCell>
        <mxCell id="PXa6PoAHHWMM4-qhzeyB-33" value="" style="group" parent="PXa6PoAHHWMM4-qhzeyB-32" vertex="1" connectable="0">
          <mxGeometry width="48" height="20.000000000000004" as="geometry" />
        </mxCell>
        <mxCell id="PXa6PoAHHWMM4-qhzeyB-34" value="" style="triangle;whiteSpace=wrap;html=1;rotation=-90;container=1;" parent="PXa6PoAHHWMM4-qhzeyB-33" vertex="1">
          <mxGeometry x="18" y="-9.999999999999998" width="20" height="40" as="geometry" />
        </mxCell>
        <mxCell id="PXa6PoAHHWMM4-qhzeyB-35" value="" style="triangle;whiteSpace=wrap;html=1;rotation=-90;" parent="PXa6PoAHHWMM4-qhzeyB-33" vertex="1">
          <mxGeometry x="8" y="-3.9999999999999982" width="16" height="32" as="geometry" />
        </mxCell>
        <mxCell id="PXa6PoAHHWMM4-qhzeyB-62" value="" style="group" parent="1" vertex="1" connectable="0">
          <mxGeometry x="450" y="560" width="250" height="73" as="geometry" />
        </mxCell>
        <mxCell id="PXa6PoAHHWMM4-qhzeyB-63" value="" style="whiteSpace=wrap;html=1;aspect=fixed;fontStyle=0" parent="PXa6PoAHHWMM4-qhzeyB-62" vertex="1">
          <mxGeometry width="70" height="70" as="geometry" />
        </mxCell>
        <mxCell id="PXa6PoAHHWMM4-qhzeyB-64" value="List title&amp;nbsp;" style="text;html=1;strokeColor=none;fillColor=none;align=left;verticalAlign=middle;whiteSpace=wrap;rounded=0;" parent="PXa6PoAHHWMM4-qhzeyB-62" vertex="1">
          <mxGeometry x="80" width="170" height="20" as="geometry" />
        </mxCell>
        <mxCell id="PXa6PoAHHWMM4-qhzeyB-65" value="Event name" style="text;html=1;strokeColor=none;fillColor=none;align=left;verticalAlign=middle;whiteSpace=wrap;rounded=0;" parent="PXa6PoAHHWMM4-qhzeyB-62" vertex="1">
          <mxGeometry x="79" y="19" width="170" height="20" as="geometry" />
        </mxCell>
        <mxCell id="PXa6PoAHHWMM4-qhzeyB-66" value="Place" style="text;html=1;strokeColor=none;fillColor=none;align=left;verticalAlign=middle;whiteSpace=wrap;rounded=0;" parent="PXa6PoAHHWMM4-qhzeyB-62" vertex="1">
          <mxGeometry x="80" y="37" width="170" height="20" as="geometry" />
        </mxCell>
        <mxCell id="PXa6PoAHHWMM4-qhzeyB-67" value="Number of attendees&amp;nbsp;" style="text;html=1;strokeColor=none;fillColor=none;align=left;verticalAlign=middle;whiteSpace=wrap;rounded=0;" parent="PXa6PoAHHWMM4-qhzeyB-62" vertex="1">
          <mxGeometry x="80" y="53" width="170" height="20" as="geometry" />
        </mxCell>
        <mxCell id="PXa6PoAHHWMM4-qhzeyB-68" value="" style="group" parent="PXa6PoAHHWMM4-qhzeyB-62" vertex="1" connectable="0">
          <mxGeometry width="70" height="70" as="geometry" />
        </mxCell>
        <mxCell id="PXa6PoAHHWMM4-qhzeyB-69" value="" style="group" parent="PXa6PoAHHWMM4-qhzeyB-68" vertex="1" connectable="0">
          <mxGeometry x="10" y="20" width="48" height="32" as="geometry" />
        </mxCell>
        <mxCell id="PXa6PoAHHWMM4-qhzeyB-70" value="" style="group" parent="PXa6PoAHHWMM4-qhzeyB-69" vertex="1" connectable="0">
          <mxGeometry x="22" width="20" height="20" as="geometry" />
        </mxCell>
        <mxCell id="PXa6PoAHHWMM4-qhzeyB-71" value="" style="ellipse;whiteSpace=wrap;html=1;aspect=fixed;" parent="PXa6PoAHHWMM4-qhzeyB-70" vertex="1">
          <mxGeometry width="20" height="20" as="geometry" />
        </mxCell>
        <mxCell id="PXa6PoAHHWMM4-qhzeyB-72" value="" style="group" parent="PXa6PoAHHWMM4-qhzeyB-69" vertex="1" connectable="0">
          <mxGeometry y="12" width="48" height="20.000000000000004" as="geometry" />
        </mxCell>
        <mxCell id="PXa6PoAHHWMM4-qhzeyB-73" value="" style="group" parent="PXa6PoAHHWMM4-qhzeyB-72" vertex="1" connectable="0">
          <mxGeometry width="48" height="20.000000000000004" as="geometry" />
        </mxCell>
        <mxCell id="PXa6PoAHHWMM4-qhzeyB-74" value="" style="group" parent="PXa6PoAHHWMM4-qhzeyB-73" vertex="1" connectable="0">
          <mxGeometry width="48" height="20.000000000000004" as="geometry" />
        </mxCell>
        <mxCell id="PXa6PoAHHWMM4-qhzeyB-75" value="" style="triangle;whiteSpace=wrap;html=1;rotation=-90;container=1;" parent="PXa6PoAHHWMM4-qhzeyB-74" vertex="1">
          <mxGeometry x="18" y="-9.999999999999998" width="20" height="40" as="geometry" />
        </mxCell>
        <mxCell id="PXa6PoAHHWMM4-qhzeyB-76" value="" style="triangle;whiteSpace=wrap;html=1;rotation=-90;" parent="PXa6PoAHHWMM4-qhzeyB-74" vertex="1">
          <mxGeometry x="8" y="-3.9999999999999982" width="16" height="32" as="geometry" />
        </mxCell>
        <mxCell id="PXa6PoAHHWMM4-qhzeyB-77" value="" style="group" parent="1" vertex="1" connectable="0">
          <mxGeometry x="450" y="640" width="250" height="73" as="geometry" />
        </mxCell>
        <mxCell id="PXa6PoAHHWMM4-qhzeyB-78" value="" style="whiteSpace=wrap;html=1;aspect=fixed;fontStyle=0" parent="PXa6PoAHHWMM4-qhzeyB-77" vertex="1">
          <mxGeometry width="70" height="70" as="geometry" />
        </mxCell>
        <mxCell id="PXa6PoAHHWMM4-qhzeyB-79" value="List title&amp;nbsp;" style="text;html=1;strokeColor=none;fillColor=none;align=left;verticalAlign=middle;whiteSpace=wrap;rounded=0;" parent="PXa6PoAHHWMM4-qhzeyB-77" vertex="1">
          <mxGeometry x="80" width="170" height="20" as="geometry" />
        </mxCell>
        <mxCell id="PXa6PoAHHWMM4-qhzeyB-80" value="Event name" style="text;html=1;strokeColor=none;fillColor=none;align=left;verticalAlign=middle;whiteSpace=wrap;rounded=0;" parent="PXa6PoAHHWMM4-qhzeyB-77" vertex="1">
          <mxGeometry x="79" y="19" width="170" height="20" as="geometry" />
        </mxCell>
        <mxCell id="PXa6PoAHHWMM4-qhzeyB-81" value="Place" style="text;html=1;strokeColor=none;fillColor=none;align=left;verticalAlign=middle;whiteSpace=wrap;rounded=0;" parent="PXa6PoAHHWMM4-qhzeyB-77" vertex="1">
          <mxGeometry x="80" y="37" width="170" height="20" as="geometry" />
        </mxCell>
        <mxCell id="PXa6PoAHHWMM4-qhzeyB-82" value="Number of attendees&amp;nbsp;" style="text;html=1;strokeColor=none;fillColor=none;align=left;verticalAlign=middle;whiteSpace=wrap;rounded=0;" parent="PXa6PoAHHWMM4-qhzeyB-77" vertex="1">
          <mxGeometry x="80" y="53" width="170" height="20" as="geometry" />
        </mxCell>
        <mxCell id="PXa6PoAHHWMM4-qhzeyB-83" value="" style="group" parent="PXa6PoAHHWMM4-qhzeyB-77" vertex="1" connectable="0">
          <mxGeometry width="70" height="70" as="geometry" />
        </mxCell>
        <mxCell id="PXa6PoAHHWMM4-qhzeyB-84" value="" style="group" parent="PXa6PoAHHWMM4-qhzeyB-83" vertex="1" connectable="0">
          <mxGeometry x="10" y="20" width="48" height="32" as="geometry" />
        </mxCell>
        <mxCell id="PXa6PoAHHWMM4-qhzeyB-85" value="" style="group" parent="PXa6PoAHHWMM4-qhzeyB-84" vertex="1" connectable="0">
          <mxGeometry x="22" width="20" height="20" as="geometry" />
        </mxCell>
        <mxCell id="PXa6PoAHHWMM4-qhzeyB-86" value="" style="ellipse;whiteSpace=wrap;html=1;aspect=fixed;" parent="PXa6PoAHHWMM4-qhzeyB-85" vertex="1">
          <mxGeometry width="20" height="20" as="geometry" />
        </mxCell>
        <mxCell id="PXa6PoAHHWMM4-qhzeyB-87" value="" style="group" parent="PXa6PoAHHWMM4-qhzeyB-84" vertex="1" connectable="0">
          <mxGeometry y="12" width="48" height="20.000000000000004" as="geometry" />
        </mxCell>
        <mxCell id="PXa6PoAHHWMM4-qhzeyB-88" value="" style="group" parent="PXa6PoAHHWMM4-qhzeyB-87" vertex="1" connectable="0">
          <mxGeometry width="48" height="20.000000000000004" as="geometry" />
        </mxCell>
        <mxCell id="PXa6PoAHHWMM4-qhzeyB-89" value="" style="group" parent="PXa6PoAHHWMM4-qhzeyB-88" vertex="1" connectable="0">
          <mxGeometry width="48" height="20.000000000000004" as="geometry" />
        </mxCell>
        <mxCell id="PXa6PoAHHWMM4-qhzeyB-90" value="" style="triangle;whiteSpace=wrap;html=1;rotation=-90;container=1;" parent="PXa6PoAHHWMM4-qhzeyB-89" vertex="1">
          <mxGeometry x="18" y="-9.999999999999998" width="20" height="40" as="geometry" />
        </mxCell>
        <mxCell id="PXa6PoAHHWMM4-qhzeyB-91" value="" style="triangle;whiteSpace=wrap;html=1;rotation=-90;" parent="PXa6PoAHHWMM4-qhzeyB-89" vertex="1">
          <mxGeometry x="8" y="-3.9999999999999982" width="16" height="32" as="geometry" />
        </mxCell>
        <mxCell id="PXa6PoAHHWMM4-qhzeyB-92" value="" style="endArrow=none;html=1;" parent="1" edge="1">
          <mxGeometry width="50" height="50" relative="1" as="geometry">
            <mxPoint x="399" y="754" as="sourcePoint" />
            <mxPoint x="399" y="439" as="targetPoint" />
          </mxGeometry>
        </mxCell>
        <mxCell id="PXa6PoAHHWMM4-qhzeyB-93" value="Lists page" style="text;html=1;strokeColor=none;fillColor=none;align=center;verticalAlign=middle;whiteSpace=wrap;rounded=0;fontStyle=1" parent="1" vertex="1">
          <mxGeometry x="490" y="440" width="110" height="20" as="geometry" />
        </mxCell>
      </root>
    </mxGraphModel>
  </diagram>
</mxfile>
